<?xml version="1.0" ?><svg id="Hospital" style="enable-background:new 0 0 32 32;" version="1.1" viewBox="0 0 32 32" xml:space="preserve" xmlns="http://www.w3.org/2000/svg" xmlns:xlink="http://www.w3.org/1999/xlink"><style type="text/css">
	.st0{fill:#E4EDF2;}
	.st1{fill:#B9F3F8;}
	.st2{fill:#6FA7AB;}
	.st3{fill:#7A442A;}
	.st4{fill:#F25949;}
</style><g><path class="st0" d="M11,28v-7c0-0.553,0.448-1,1-1h8c0.553,0,1,0.447,1,1v7h6.5V4c0-1.103-0.897-2-2-2h-19c-1.103,0-2,0.897-2,2   v24H11z M19,10.5h-2v2c0,0.552-0.448,1-1,1s-1-0.448-1-1v-2h-2c-0.552,0-1-0.448-1-1s0.448-1,1-1h2v-2c0-0.552,0.448-1,1-1   s1,0.448,1,1v2h2c0.553,0,1,0.448,1,1S19.553,10.5,19,10.5z"/><rect class="st1" height="6" width="2" x="13" y="22"/><rect class="st1" height="6" width="2" x="17" y="22"/><path class="st2" d="M20,20h-8c-0.552,0-1,0.447-1,1v7h2v-6h2v6h2v-6h2v6h2v-7C21,20.447,20.553,20,20,20z"/><path class="st3" d="M29,28h-1.5h-23H3c-0.552,0-1,0.447-1,1s0.448,1,1,1c8.129,0,17.871,0,26,0c0.553,0,1-0.447,1-1   S29.553,28,29,28z"/><path class="st4" d="M19,8.5h-2v-2c0-0.552-0.448-1-1-1s-1,0.448-1,1v2h-2c-0.552,0-1,0.448-1,1s0.448,1,1,1h2v2   c0,0.552,0.448,1,1,1s1-0.448,1-1v-2h2c0.553,0,1-0.448,1-1S19.553,8.5,19,8.5z"/></g></svg>