<?xml version="1.0" ?><svg viewBox="0 0 22.501 22.521" xmlns="http://www.w3.org/2000/svg"><g data-name="Layer 2" id="Layer_2"><g data-name="Layer 1" id="Layer_1-2"><path d="M9.979,7.961a.341.341,0,0,1,0-.682A.341.341,0,0,1,9.979,7.961Zm5.09-.682a.341.341,0,0,0,0,.682A.341.341,0,0,0,15.069,7.279Zm-2.547,0a.341.341,0,0,0,0,.682A.341.341,0,0,0,12.522,7.279Zm-5.091,0a.341.341,0,0,0,0,.682A.341.341,0,0,0,7.431,7.279Zm5.091,5.459a.342.342,0,0,0,0,.683A.342.342,0,0,0,12.522,12.738Zm2.547,0a.342.342,0,0,0,0,.683A.342.342,0,0,0,15.069,12.738Zm-7.638,0a.342.342,0,0,0,0,.683A.342.342,0,0,0,7.431,12.738Zm2.548,0a.342.342,0,0,0,0,.683A.342.342,0,0,0,9.979,12.738Zm5.09-1.82a.342.342,0,0,0,0,.683A.342.342,0,0,0,15.069,10.918Zm-7.638,0a.342.342,0,0,0,0,.683A.342.342,0,0,0,7.431,10.918Zm2.548,0a.342.342,0,0,0,0,.683A.342.342,0,0,0,9.979,10.918Zm2.543,0a.342.342,0,0,0,0,.683A.342.342,0,0,0,12.522,10.918ZM15.069,9.1a.341.341,0,0,0,0,.682A.341.341,0,0,0,15.069,9.1Zm-5.09,0a.341.341,0,0,0,0,.682A.341.341,0,0,0,9.979,9.1Zm2.543,0a.341.341,0,0,0,0,.682A.341.341,0,0,0,12.522,9.1Zm-5.091,0a.341.341,0,0,0,0,.682A.341.341,0,0,0,7.431,9.1ZM22.17,22.521H.331a.341.341,0,0,1,0-.682H1.355v-6.6H.786a.342.342,0,0,1,0-.683H4.54V6.142H3.971a.341.341,0,0,1,0-.682H8.18V3.071a3.071,3.071,0,1,1,6.142,0V5.46H18.53a.341.341,0,0,1,.341.341c0,.46-.623.323-.91.341v8.417h3.754a.342.342,0,0,1,0,.683h-.569v6.6H22.17A.342.342,0,0,1,22.17,22.521ZM8.862,5.459h4.777V3.071a2.389,2.389,0,0,0-4.777,0Zm-3.64,9.1H17.279V6.142H5.222ZM8.18,17.516H4.312v2.048H8.18Zm2.729,0H8.862v4.322h2.047Zm2.73,0H11.592v4.322h2.047Zm6.825-2.274H2.038v6.6H8.18V20.246H3.971a.341.341,0,0,1-.341-.341v-2.73a.341.341,0,0,1,.341-.341H18.53a.341.341,0,0,1,.341.341v2.73a.341.341,0,0,1-.341.341H14.322v1.592h6.142Zm-2.275,4.322V17.516H14.322v2.048ZM12.388,2.73h-.8c-.045-.338.177-1.131-.342-1.138s-.3.8-.341,1.138c-.338.044-1.13-.178-1.137.341s.8.3,1.137.341c.045.338-.178,1.13.341,1.137s.3-.8.342-1.137h.8A.341.341,0,0,0,12.388,2.73Z" data-name="clinical center" id="clinical_center"/></g></g></svg>